<svg xmlns="http://www.w3.org/2000/svg" xmlns:xlink="http://www.w3.org/1999/xlink" width="1080" zoomAndPan="magnify" viewBox="0 0 810 809.999993" height="1080" preserveAspectRatio="xMidYMid meet" version="1.0"><path fill="#009846" d="M 810 405 C 810 628.679688 628.679688 810 405 810 C 181.320312 810 0 628.679688 0 405 C 0 181.320312 181.320312 0 405 0 C 628.679688 0 810 181.320312 810 405 " fill-opacity="1" fill-rule="nonzero"/><path fill="#ffdf00" d="M 36.867188 398.800781 L 403.6875 161.773438 L 772.242188 398.238281 L 404.460938 637.257812 L 36.867188 398.800781 " fill-opacity="1" fill-rule="nonzero"/><path fill="#002279" d="M 560.257812 398.109375 C 560.257812 484.980469 490.683594 555.40625 404.863281 555.40625 C 319.039062 555.40625 249.464844 484.980469 249.464844 398.109375 C 249.464844 311.226562 319.039062 240.804688 404.863281 240.804688 C 490.683594 240.804688 560.257812 311.226562 560.257812 398.109375 " fill-opacity="1" fill-rule="nonzero"/><path fill="#ffffff" d="M 390.476562 336.222656 C 496.75 358.859375 558.507812 421.78125 558.507812 421.78125 C 556.859375 434.039062 552.757812 446.703125 552.757812 446.703125 C 484.445312 381.285156 399.097656 363.628906 399.097656 363.628906 C 323.078125 345.101562 254.453125 358.445312 254.453125 358.445312 C 256.605469 349.5625 262.765625 334.296875 262.765625 334.296875 C 262.765625 334.296875 314.5625 324.585938 390.476562 336.222656 " fill-opacity="1" fill-rule="nonzero"/><path fill="#ffffff" d="M 277.84375 363.371094 L 279.335938 368.027344 L 284.179688 368.027344 L 280.257812 370.914062 L 281.757812 375.570312 L 277.84375 372.691406 L 273.917969 375.570312 L 275.421875 370.914062 L 271.496094 368.027344 L 276.339844 368.027344 L 277.84375 363.371094 " fill-opacity="1" fill-rule="nonzero"/><path fill="#ffffff" d="M 345.339844 399.046875 L 346.644531 403.109375 L 350.851562 403.109375 L 347.445312 405.613281 L 348.75 409.671875 L 345.339844 407.160156 L 341.921875 409.671875 L 343.226562 405.613281 L 339.820312 403.109375 L 344.035156 403.109375 L 345.339844 399.046875 " fill-opacity="1" fill-rule="nonzero"/><path fill="#ffffff" d="M 306.972656 422.71875 L 307.761719 425.199219 L 310.332031 425.199219 L 308.25 426.722656 L 309.050781 429.195312 L 306.972656 427.664062 L 304.890625 429.195312 L 305.691406 426.722656 L 303.613281 425.199219 L 306.179688 425.199219 L 306.972656 422.71875 " fill-opacity="1" fill-rule="nonzero"/><path fill="#ffffff" d="M 291.582031 429.136719 L 293.246094 434.324219 L 298.636719 434.324219 L 294.28125 437.53125 L 295.945312 442.714844 L 291.582031 439.511719 L 287.226562 442.714844 L 288.890625 437.53125 L 284.527344 434.324219 L 289.917969 434.324219 L 291.582031 429.136719 " fill-opacity="1" fill-rule="nonzero"/><path fill="#ffffff" d="M 272.296875 445.039062 L 273.527344 448.863281 L 277.507812 448.863281 L 274.285156 451.230469 L 275.519531 455.0625 L 272.296875 452.699219 L 269.082031 455.0625 L 270.308594 451.230469 L 267.09375 448.863281 L 271.074219 448.863281 L 272.296875 445.039062 " fill-opacity="1" fill-rule="nonzero"/><path fill="#ffffff" d="M 323.941406 446.53125 L 325.171875 450.363281 L 329.144531 450.363281 L 325.929688 452.730469 L 327.164062 456.554688 L 323.941406 454.191406 L 320.71875 456.554688 L 321.953125 452.730469 L 318.730469 450.363281 L 322.710938 450.363281 L 323.941406 446.53125 " fill-opacity="1" fill-rule="nonzero"/><path fill="#ffffff" d="M 319.21875 462.320312 L 320.449219 466.144531 L 324.429688 466.144531 L 321.210938 468.519531 L 322.441406 472.34375 L 319.21875 469.976562 L 316.007812 472.34375 L 317.230469 468.519531 L 314.015625 466.144531 L 317.988281 466.144531 L 319.21875 462.320312 " fill-opacity="1" fill-rule="nonzero"/><path fill="#ffffff" d="M 342.199219 475.847656 L 343.578125 480.128906 L 348.023438 480.128906 L 344.425781 482.78125 L 345.796875 487.0625 L 342.199219 484.410156 L 338.605469 487.0625 L 339.972656 482.78125 L 336.378906 480.128906 L 340.828125 480.128906 L 342.199219 475.847656 " fill-opacity="1" fill-rule="nonzero"/><path fill="#ffffff" d="M 404.363281 463.175781 L 405.742188 467.457031 L 410.1875 467.457031 L 406.589844 470.109375 L 407.960938 474.390625 L 404.363281 471.746094 L 400.769531 474.390625 L 402.136719 470.109375 L 398.542969 467.457031 L 402.984375 467.457031 L 404.363281 463.175781 " fill-opacity="1" fill-rule="nonzero"/><path fill="#ffffff" d="M 422.621094 432.238281 L 423.894531 436.199219 L 428.011719 436.199219 L 424.6875 438.648438 L 425.957031 442.617188 L 422.621094 440.164062 L 419.296875 442.617188 L 420.566406 438.648438 L 417.230469 436.199219 L 421.351562 436.199219 L 422.621094 432.238281 " fill-opacity="1" fill-rule="nonzero"/><path fill="#ffffff" d="M 404.363281 417.902344 L 405.636719 421.863281 L 409.753906 421.863281 L 406.425781 424.320312 L 407.691406 428.28125 L 404.363281 425.835938 L 401.035156 428.28125 L 402.300781 424.320312 L 398.972656 421.863281 L 403.089844 421.863281 L 404.363281 417.902344 " fill-opacity="1" fill-rule="nonzero"/><path fill="#ffffff" d="M 388.675781 432.328125 L 389.800781 435.839844 L 393.445312 435.839844 L 390.492188 438.011719 L 391.625 441.523438 L 388.675781 439.347656 L 385.722656 441.523438 L 386.847656 438.011719 L 383.894531 435.839844 L 387.539062 435.839844 L 388.675781 432.328125 " fill-opacity="1" fill-rule="nonzero"/><path fill="#ffffff" d="M 396.46875 444.933594 L 397.300781 447.542969 L 400.007812 447.542969 L 397.824219 449.148438 L 398.65625 451.757812 L 396.46875 450.152344 L 394.277344 451.757812 L 395.117188 449.148438 L 392.921875 447.542969 L 395.628906 447.542969 L 396.46875 444.933594 " fill-opacity="1" fill-rule="nonzero"/><path fill="#ffffff" d="M 446.777344 387.035156 L 447.609375 389.644531 L 450.316406 389.644531 L 448.121094 391.257812 L 448.960938 393.859375 L 446.777344 392.253906 L 444.582031 393.859375 L 445.414062 391.257812 L 443.230469 389.644531 L 445.9375 389.644531 L 446.777344 387.035156 " fill-opacity="1" fill-rule="nonzero"/><path fill="#ffffff" d="M 452.722656 342.386719 L 454.269531 347.214844 L 459.285156 347.214844 L 455.234375 350.199219 L 456.78125 355.027344 L 452.722656 352.042969 L 448.660156 355.027344 L 450.210938 350.199219 L 446.15625 347.214844 L 451.171875 347.214844 L 452.722656 342.386719 " fill-opacity="1" fill-rule="nonzero"/><path fill="#ffffff" d="M 513.246094 446.851562 L 514.796875 451.679688 L 519.8125 451.679688 L 515.757812 454.664062 L 517.300781 459.492188 L 513.246094 456.503906 L 509.1875 459.492188 L 510.734375 454.664062 L 506.683594 451.679688 L 511.699219 451.679688 L 513.246094 446.851562 " fill-opacity="1" fill-rule="nonzero"/><path fill="#ffffff" d="M 509.960938 474.054688 L 511.257812 478.089844 L 515.449219 478.089844 L 512.054688 480.585938 L 513.351562 484.625 L 509.960938 482.128906 L 506.566406 484.625 L 507.863281 480.585938 L 504.472656 478.089844 L 508.664062 478.089844 L 509.960938 474.054688 " fill-opacity="1" fill-rule="nonzero"/><path fill="#ffffff" d="M 519.609375 462.011719 L 520.902344 466.046875 L 525.085938 466.046875 L 521.703125 468.542969 L 522.992188 472.570312 L 519.609375 470.082031 L 516.214844 472.570312 L 517.511719 468.542969 L 514.121094 466.046875 L 518.3125 466.046875 L 519.609375 462.011719 " fill-opacity="1" fill-rule="nonzero"/><path fill="#ffffff" d="M 534.792969 450.167969 L 535.777344 453.253906 L 538.984375 453.253906 L 536.390625 455.160156 L 537.375 458.242188 L 534.792969 456.34375 L 532.199219 458.242188 L 533.183594 455.160156 L 530.59375 453.253906 L 533.796875 453.253906 L 534.792969 450.167969 " fill-opacity="1" fill-rule="nonzero"/><path fill="#ffffff" d="M 497.65625 483.605469 L 498.640625 486.695312 L 501.847656 486.695312 L 499.253906 488.59375 L 500.238281 491.675781 L 497.65625 489.777344 L 495.0625 491.675781 L 496.046875 488.59375 L 493.464844 486.695312 L 496.660156 486.695312 L 497.65625 483.605469 " fill-opacity="1" fill-rule="nonzero"/><path fill="#ffffff" d="M 482.265625 495.265625 L 483.398438 498.804688 L 487.070312 498.804688 L 484.101562 500.988281 L 485.234375 504.53125 L 482.265625 502.34375 L 479.296875 504.53125 L 480.433594 500.988281 L 477.464844 498.804688 L 481.132812 498.804688 L 482.265625 495.265625 " fill-opacity="1" fill-rule="nonzero"/><path fill="#ffffff" d="M 481.238281 480.691406 L 482.183594 483.621094 L 485.226562 483.621094 L 482.765625 485.4375 L 483.703125 488.367188 L 481.238281 486.554688 L 478.777344 488.367188 L 479.714844 485.4375 L 477.25 483.621094 L 480.300781 483.621094 L 481.238281 480.691406 " fill-opacity="1" fill-rule="nonzero"/><path fill="#ffffff" d="M 464.414062 486.296875 L 465.355469 489.230469 L 468.402344 489.230469 L 465.941406 491.042969 L 466.878906 493.976562 L 464.414062 492.167969 L 461.953125 493.976562 L 462.890625 491.042969 L 460.429688 489.230469 L 463.476562 489.230469 L 464.414062 486.296875 " fill-opacity="1" fill-rule="nonzero"/><path fill="#ffffff" d="M 438.769531 482.144531 L 439.714844 485.082031 L 442.757812 485.082031 L 440.292969 486.890625 L 441.230469 489.828125 L 438.769531 488.007812 L 436.304688 489.828125 L 437.242188 486.890625 L 434.789062 485.082031 L 437.832031 485.082031 L 438.769531 482.144531 " fill-opacity="1" fill-rule="nonzero"/><path fill="#ffffff" d="M 482.183594 512.488281 L 483.121094 515.425781 L 486.171875 515.425781 L 483.703125 517.234375 L 484.648438 520.171875 L 482.183594 518.359375 L 479.714844 520.171875 L 480.660156 517.234375 L 478.199219 515.425781 L 481.238281 515.425781 L 482.183594 512.488281 " fill-opacity="1" fill-rule="nonzero"/><path fill="#ffffff" d="M 451.207031 499.40625 L 452.347656 502.980469 L 456.050781 502.980469 L 453.054688 505.183594 L 454.199219 508.746094 L 451.207031 506.542969 L 448.203125 508.746094 L 449.355469 505.183594 L 446.351562 502.980469 L 450.0625 502.980469 L 451.207031 499.40625 " fill-opacity="1" fill-rule="nonzero"/><path fill="#ffffff" d="M 404.835938 519.144531 L 405.367188 520.796875 L 407.097656 520.796875 L 405.703125 521.832031 L 406.230469 523.488281 L 404.835938 522.460938 L 403.441406 523.488281 L 403.972656 521.832031 L 402.578125 520.796875 L 404.308594 520.796875 L 404.835938 519.144531 " fill-opacity="1" fill-rule="nonzero"/><path fill="#009b2d" d="M 265.03125 345.339844 C 265.691406 348.113281 267.964844 350.304688 270.933594 349.867188 C 273.917969 349.433594 275.117188 346.757812 274.53125 343.796875 C 274.007812 341.214844 271.890625 338.703125 268.609375 339.183594 C 265.355469 339.664062 264.355469 342.492188 265.03125 345.339844 Z M 276.554688 343.464844 C 277.410156 347.949219 274.824219 350.707031 271.121094 351.25 C 267.289062 351.824219 263.953125 349.636719 262.984375 345.714844 C 261.972656 341.613281 264.3125 338.398438 268.398438 337.796875 C 272.574219 337.191406 275.804688 339.597656 276.554688 343.464844 " fill-opacity="1" fill-rule="nonzero"/><path fill="#009b2d" d="M 287.59375 341.980469 C 288.257812 341.914062 288.917969 341.855469 289.570312 341.808594 C 291.640625 341.628906 292.8125 340.535156 292.601562 339.035156 C 292.375 337.347656 290.839844 336.710938 288.761719 336.875 C 287.808594 336.957031 287.148438 337.09375 286.84375 337.199219 C 287.089844 338.792969 287.34375 340.390625 287.59375 341.980469 Z M 284.683594 336.207031 C 285.65625 335.929688 287.066406 335.699219 288.425781 335.578125 C 290.539062 335.398438 291.949219 335.628906 293.003906 336.296875 C 293.851562 336.824219 294.394531 337.691406 294.527344 338.703125 C 294.753906 340.429688 293.664062 341.667969 292.152344 342.257812 C 292.152344 342.28125 292.160156 342.296875 292.160156 342.320312 C 293.367188 342.574219 294.175781 343.464844 294.714844 344.800781 C 295.441406 346.59375 295.960938 347.835938 296.328125 348.324219 C 295.675781 348.363281 295.023438 348.414062 294.371094 348.460938 C 294.085938 348.105469 293.605469 347.003906 292.953125 345.40625 C 292.269531 343.628906 291.363281 343.007812 289.609375 343.097656 C 289.007812 343.152344 288.402344 343.203125 287.792969 343.261719 C 288.09375 345.152344 288.386719 347.042969 288.6875 348.9375 C 288.058594 348.992188 287.433594 349.050781 286.796875 349.113281 C 286.09375 344.808594 285.386719 340.503906 284.683594 336.207031 " fill-opacity="1" fill-rule="nonzero"/><path fill="#009b2d" d="M 306.757812 346.425781 C 307.25 346.488281 307.949219 346.480469 308.683594 346.457031 C 312.738281 346.34375 314.808594 344.304688 314.578125 340.75 C 314.398438 337.640625 312.238281 335.683594 308.070312 335.796875 C 307.050781 335.824219 306.292969 335.929688 305.78125 336.050781 C 306.105469 339.507812 306.433594 342.964844 306.757812 346.425781 Z M 303.691406 334.875 C 304.875 334.671875 306.292969 334.5 307.867188 334.453125 C 310.707031 334.371094 312.769531 334.910156 314.171875 335.96875 C 315.597656 337.023438 316.472656 338.539062 316.601562 340.675781 C 316.722656 342.820312 316.078125 344.574219 314.785156 345.804688 C 313.488281 347.050781 311.277344 347.746094 308.4375 347.835938 C 307.09375 347.875 305.953125 347.859375 304.988281 347.800781 C 304.558594 343.496094 304.125 339.191406 303.691406 334.875 " fill-opacity="1" fill-rule="nonzero"/><path fill="#009b2d" d="M 333.523438 341.726562 C 331.589844 341.636719 329.65625 341.570312 327.726562 341.515625 C 327.757812 343.097656 327.789062 344.679688 327.824219 346.253906 C 329.953125 346.316406 332.070312 346.390625 334.183594 346.496094 C 334.183594 346.96875 334.183594 347.445312 334.183594 347.917969 C 331.453125 347.785156 328.710938 347.695312 325.972656 347.632812 C 325.847656 343.25 325.71875 338.863281 325.597656 334.484375 C 328.351562 334.542969 331.101562 334.640625 333.847656 334.761719 C 333.847656 335.234375 333.847656 335.707031 333.847656 336.183594 C 331.769531 336.09375 329.683594 336.011719 327.601562 335.953125 C 327.628906 337.339844 327.660156 338.726562 327.691406 340.113281 C 329.632812 340.160156 331.574219 340.234375 333.523438 340.324219 C 333.523438 340.789062 333.523438 341.261719 333.523438 341.726562 " fill-opacity="1" fill-rule="nonzero"/><path fill="#009b2d" d="M 355.800781 343.839844 C 355.828125 342.011719 355.851562 339.800781 355.996094 338.179688 C 355.972656 338.179688 355.949219 338.171875 355.925781 338.171875 C 355.304688 339.648438 354.5625 341.203125 353.699219 342.933594 C 352.679688 344.957031 351.691406 346.988281 350.714844 349.015625 C 350.242188 348.96875 349.757812 348.925781 349.285156 348.886719 C 348.609375 346.734375 347.917969 344.589844 347.207031 342.4375 C 346.578125 340.527344 346.050781 338.792969 345.683594 337.199219 C 345.664062 337.199219 345.648438 337.199219 345.632812 337.191406 C 345.527344 338.824219 345.339844 341.015625 345.128906 342.964844 C 344.921875 344.832031 344.726562 346.691406 344.53125 348.5625 C 343.9375 348.511719 343.332031 348.472656 342.738281 348.421875 C 343.203125 344.074219 343.683594 339.730469 344.179688 335.382812 C 345.019531 335.449219 345.863281 335.511719 346.691406 335.585938 C 347.46875 337.773438 348.234375 339.957031 348.96875 342.144531 C 349.507812 343.816406 349.9375 345.296875 350.230469 346.691406 C 350.257812 346.691406 350.273438 346.691406 350.296875 346.691406 C 350.738281 345.40625 351.339844 344.019531 352.109375 342.4375 C 353.121094 340.414062 354.148438 338.398438 355.199219 336.394531 C 356.03125 336.484375 356.863281 336.574219 357.695312 336.671875 C 357.667969 341.058594 357.628906 345.445312 357.578125 349.832031 C 356.96875 349.757812 356.355469 349.695312 355.753906 349.621094 C 355.769531 347.695312 355.785156 345.773438 355.800781 343.839844 " fill-opacity="1" fill-rule="nonzero"/><path fill="#009b2d" d="M 386.351562 348.226562 C 384.457031 347.84375 382.566406 347.476562 380.667969 347.125 C 380.414062 348.675781 380.167969 350.222656 379.925781 351.773438 C 382.003906 352.15625 384.082031 352.566406 386.164062 352.988281 C 386.074219 353.453125 385.992188 353.917969 385.910156 354.382812 C 383.226562 353.835938 380.535156 353.316406 377.84375 352.832031 C 378.503906 348.527344 379.15625 344.222656 379.816406 339.917969 C 382.515625 340.40625 385.214844 340.917969 387.90625 341.464844 C 387.824219 341.929688 387.746094 342.394531 387.664062 342.859375 C 385.625 342.445312 383.578125 342.046875 381.53125 341.667969 C 381.320312 343.03125 381.097656 344.386719 380.886719 345.746094 C 382.792969 346.097656 384.695312 346.464844 386.601562 346.855469 C 386.511719 347.3125 386.429688 347.769531 386.351562 348.226562 " fill-opacity="1" fill-rule="nonzero"/><path fill="#009b2d" d="M 408.890625 353.078125 C 409.273438 353.28125 409.769531 353.460938 410.390625 353.632812 C 412.625 354.261719 414.253906 353.707031 414.746094 351.976562 C 415.21875 350.320312 414.078125 349.113281 411.988281 348.535156 C 411.164062 348.308594 410.519531 348.195312 410.171875 348.175781 C 409.746094 349.808594 409.3125 351.449219 408.890625 353.078125 Z M 408.578125 346.480469 C 409.535156 346.59375 410.765625 346.808594 412.289062 347.230469 C 414.164062 347.753906 415.429688 348.527344 416.105469 349.449219 C 416.75 350.28125 416.953125 351.332031 416.636719 352.441406 C 416.3125 353.574219 415.667969 354.359375 414.761719 354.800781 C 413.511719 355.417969 411.808594 355.433594 410 354.929688 C 409.453125 354.773438 408.9375 354.621094 408.539062 354.40625 C 408.097656 356.09375 407.660156 357.777344 407.21875 359.464844 C 406.613281 359.300781 406.003906 359.136719 405.398438 358.972656 C 406.460938 354.808594 407.519531 350.648438 408.578125 346.480469 " fill-opacity="1" fill-rule="nonzero"/><path fill="#009b2d" d="M 426.632812 358.085938 C 427.261719 358.296875 427.890625 358.5 428.511719 358.714844 C 430.46875 359.375 432.023438 358.875 432.523438 357.464844 C 433.078125 355.882812 431.976562 354.71875 430.019531 354.03125 C 429.121094 353.730469 428.453125 353.59375 428.128906 353.566406 C 427.628906 355.078125 427.140625 356.585938 426.632812 358.085938 Z M 426.625 351.839844 C 427.628906 351.976562 429.015625 352.328125 430.304688 352.769531 C 432.292969 353.4375 433.476562 354.195312 434.128906 355.199219 C 434.660156 356.007812 434.765625 356.984375 434.421875 357.929688 C 433.835938 359.554688 432.285156 360.214844 430.648438 360.140625 C 430.640625 360.15625 430.640625 360.171875 430.628906 360.1875 C 431.609375 360.898438 431.945312 362 431.820312 363.394531 C 431.667969 365.269531 431.566406 366.566406 431.683594 367.136719 C 431.070312 366.925781 430.460938 366.703125 429.847656 366.492188 C 429.742188 366.070312 429.808594 364.902344 429.945312 363.230469 C 430.125 361.386719 429.59375 360.484375 427.957031 359.871094 C 427.386719 359.683594 426.8125 359.488281 426.242188 359.300781 C 425.648438 361.085938 425.0625 362.871094 424.472656 364.667969 C 423.871094 364.46875 423.273438 364.265625 422.679688 364.078125 C 424 359.992188 425.3125 355.917969 426.625 351.839844 " fill-opacity="1" fill-rule="nonzero"/><path fill="#009b2d" d="M 443.3125 364.59375 C 442.285156 367.1875 442.953125 370.113281 445.707031 371.222656 C 448.480469 372.347656 451.035156 370.765625 452.222656 368.050781 C 453.261719 365.675781 452.902344 362.578125 449.851562 361.339844 C 446.824219 360.125 444.363281 361.933594 443.3125 364.59375 Z M 454.132812 368.777344 C 452.289062 372.878906 448.523438 373.847656 445.082031 372.453125 C 441.515625 371.011719 439.953125 367.570312 441.378906 363.890625 C 442.863281 360.027344 446.671875 358.566406 450.472656 360.109375 C 454.351562 361.683594 455.714844 365.253906 454.132812 368.777344 " fill-opacity="1" fill-rule="nonzero"/><path fill="#009b2d" d="M 469.9375 382.792969 C 469.046875 382.65625 467.34375 382.304688 465.566406 381.449219 C 463.574219 380.488281 462.15625 379.261719 461.382812 377.558594 C 460.707031 376.050781 460.730469 374.152344 461.609375 372.316406 C 463.296875 368.808594 467.382812 367.519531 472.015625 369.761719 C 473.605469 370.539062 474.699219 371.441406 475.164062 371.980469 C 474.804688 372.316406 474.445312 372.648438 474.09375 372.984375 C 473.507812 372.347656 472.71875 371.671875 471.332031 371.003906 C 467.988281 369.378906 464.921875 370.15625 463.503906 373.097656 C 462.058594 376.082031 463.242188 378.773438 466.316406 380.257812 C 467.433594 380.804688 468.273438 381.042969 468.753906 381.058594 C 469.347656 379.90625 469.953125 378.757812 470.554688 377.609375 C 469.652344 377.160156 468.738281 376.71875 467.832031 376.277344 C 468.035156 375.878906 468.242188 375.472656 468.445312 375.070312 C 469.929688 375.789062 471.40625 376.515625 472.878906 377.25 C 471.894531 379.101562 470.914062 380.941406 469.9375 382.792969 " fill-opacity="1" fill-rule="nonzero"/><path fill="#009b2d" d="M 483.171875 382.515625 C 483.75 382.835938 484.328125 383.152344 484.910156 383.472656 C 486.726562 384.464844 488.382812 384.261719 489.15625 382.988281 C 490.039062 381.546875 489.175781 380.210938 487.355469 379.191406 C 486.523438 378.742188 485.894531 378.480469 485.578125 378.398438 C 484.769531 379.769531 483.972656 381.148438 483.171875 382.515625 Z M 484.429688 376.433594 C 485.398438 376.75 486.703125 377.355469 487.902344 378.007812 C 489.753906 379.027344 490.773438 379.980469 491.21875 381.074219 C 491.585938 381.953125 491.488281 382.933594 490.960938 383.789062 C 490.054688 385.257812 488.367188 385.617188 486.75 385.242188 C 486.742188 385.257812 486.726562 385.28125 486.71875 385.296875 C 487.550781 386.152344 487.664062 387.296875 487.257812 388.625 C 486.726562 390.417969 486.367188 391.667969 486.367188 392.246094 C 485.796875 391.929688 485.234375 391.601562 484.664062 391.285156 C 484.648438 390.851562 484.949219 389.726562 485.421875 388.128906 C 485.976562 386.367188 485.625 385.386719 484.125 384.5 C 483.597656 384.207031 483.066406 383.910156 482.527344 383.625 C 481.582031 385.257812 480.628906 386.886719 479.683594 388.527344 C 479.128906 388.226562 478.574219 387.925781 478.019531 387.628906 C 480.15625 383.894531 482.292969 380.167969 484.429688 376.433594 " fill-opacity="1" fill-rule="nonzero"/><path fill="#009b2d" d="M 503.820312 395.628906 C 502.179688 394.585938 500.535156 393.550781 498.878906 392.539062 C 498.003906 393.84375 497.125 395.15625 496.253906 396.460938 C 498.0625 397.578125 499.863281 398.710938 501.667969 399.863281 C 501.390625 400.253906 501.121094 400.636719 500.84375 401.027344 C 498.535156 399.535156 496.195312 398.085938 493.847656 396.65625 C 496.253906 393.011719 498.648438 389.367188 501.0625 385.722656 C 503.421875 387.148438 505.769531 388.617188 508.09375 390.101562 C 507.824219 390.492188 507.546875 390.875 507.277344 391.265625 C 505.515625 390.140625 503.746094 389.023438 501.960938 387.933594 C 501.195312 389.082031 500.425781 390.222656 499.660156 391.375 C 501.324219 392.394531 502.972656 393.429688 504.617188 394.480469 C 504.351562 394.863281 504.089844 395.246094 503.820312 395.628906 " fill-opacity="1" fill-rule="nonzero"/><path fill="#009b2d" d="M 509.382812 404.183594 C 509.804688 405.039062 510.605469 406.050781 511.6875 406.800781 C 513.289062 407.917969 514.78125 407.855469 515.59375 406.808594 C 516.355469 405.847656 516.132812 404.828125 514.894531 403.125 C 513.34375 401.125 512.742188 399.390625 513.851562 397.90625 C 515.074219 396.257812 517.625 396.152344 520.082031 397.863281 C 521.367188 398.769531 522.109375 399.675781 522.460938 400.335938 C 522.03125 400.589844 521.589844 400.847656 521.15625 401.101562 C 520.894531 400.628906 520.300781 399.730469 519.167969 398.933594 C 517.453125 397.742188 516.140625 398.148438 515.605469 398.867188 C 514.863281 399.847656 515.261719 400.847656 516.542969 402.59375 C 518.105469 404.738281 518.480469 406.328125 517.285156 407.847656 C 516.019531 409.429688 513.566406 409.820312 510.726562 407.847656 C 509.5625 407.039062 508.5 405.863281 508.125 405.050781 C 508.550781 404.761719 508.964844 404.46875 509.382812 404.183594 " fill-opacity="1" fill-rule="nonzero"/><path fill="#009b2d" d="M 523.546875 414.34375 C 523.929688 415.226562 524.664062 416.277344 525.714844 417.085938 C 527.257812 418.285156 528.757812 418.308594 529.644531 417.304688 C 530.460938 416.390625 530.296875 415.363281 529.148438 413.59375 C 527.707031 411.515625 527.199219 409.746094 528.398438 408.328125 C 529.710938 406.753906 532.289062 406.785156 534.652344 408.628906 C 535.902344 409.597656 536.585938 410.554688 536.910156 411.222656 C 536.457031 411.457031 536.007812 411.6875 535.558594 411.921875 C 535.320312 411.433594 534.777344 410.503906 533.683594 409.648438 C 532.027344 408.359375 530.691406 408.703125 530.109375 409.386719 C 529.304688 410.316406 529.652344 411.335938 530.835938 413.15625 C 532.289062 415.382812 532.574219 416.996094 531.277344 418.4375 C 529.914062 419.949219 527.429688 420.199219 524.6875 418.070312 C 523.570312 417.207031 522.566406 415.984375 522.242188 415.144531 C 522.671875 414.882812 523.113281 414.613281 523.546875 414.34375 " fill-opacity="1" fill-rule="nonzero"/><path fill="#009b2d" d="M 541.382812 422.988281 C 539.433594 425.035156 538.992188 427.964844 541.257812 429.945312 C 543.535156 431.953125 546.601562 431.371094 548.753906 429.277344 C 550.644531 427.441406 551.4375 424.441406 548.933594 422.246094 C 546.453125 420.070312 543.386719 420.894531 541.382812 422.988281 Z M 550.34375 430.613281 C 547.039062 433.761719 543.019531 433.347656 540.191406 430.867188 C 537.261719 428.296875 537.019531 424.585938 539.765625 421.667969 C 542.636719 418.617188 546.867188 418.578125 549.984375 421.316406 C 553.171875 424.113281 553.179688 427.898438 550.34375 430.613281 " fill-opacity="1" fill-rule="nonzero"/></svg>