<svg xmlns="http://www.w3.org/2000/svg" xmlns:xlink="http://www.w3.org/1999/xlink" width="1080" zoomAndPan="magnify" viewBox="0 0 810 809.999993" height="1080" preserveAspectRatio="xMidYMid meet" version="1.0"><rect x="-81" width="972" fill="#ffffff" y="-80.999999" height="971.999992" fill-opacity="1"/><rect x="-81" width="972" fill="#ffffff" y="-80.999999" height="971.999992" fill-opacity="1"/><path fill="#fdd116" d="M 810 405 C 810 476.144531 791.566406 542.984375 759.351562 601.210938 C 690.273438 725.761719 557.457031 810 405 810 C 252.542969 810 119.726562 725.761719 50.648438 601.210938 C 18.433594 543.15625 0 476.144531 0 405 C 0 398.625 0.171875 392.425781 0.515625 386.050781 C 10.335938 171.234375 187.769531 0 405 0 C 622.402344 0 799.664062 171.234375 809.65625 386.050781 C 809.828125 392.425781 810 398.625 810 405 Z M 810 405 " fill-opacity="1" fill-rule="nonzero"/><path fill="#013893" d="M 810 405 C 810 476.144531 791.566406 542.984375 759.351562 601.210938 C 690.273438 725.761719 557.457031 810 405 810 C 252.542969 810 119.726562 725.761719 50.648438 601.210938 C 18.433594 543.15625 0 476.144531 0 405 C 0 398.625 0.171875 392.425781 0.515625 386.050781 L 809.65625 386.050781 C 809.828125 392.425781 810 398.625 810 405 Z M 810 405 " fill-opacity="1" fill-rule="nonzero"/><path fill="#ce1127" d="M 759.351562 601.210938 C 690.273438 725.761719 557.457031 810 405 810 C 252.542969 810 119.726562 725.761719 50.648438 601.210938 Z M 759.351562 601.210938 " fill-opacity="1" fill-rule="nonzero"/></svg>