<svg xmlns="http://www.w3.org/2000/svg" xmlns:xlink="http://www.w3.org/1999/xlink" width="1080" zoomAndPan="magnify" viewBox="0 0 810 809.999993" height="1080" preserveAspectRatio="xMidYMid meet" version="1.0"><path fill="#1aaf5d" d="M 810 405 C 810 628.679688 628.679688 810 405 810 C 181.316406 810 0 628.679688 0 405 Z M 810 405 " fill-opacity="1" fill-rule="evenodd"/><path fill="#ffffff" d="M 810 405 L 0 405 C 0 181.320312 181.316406 0 405 0 C 628.679688 0 810 181.320312 810 405 Z M 810 405 " fill-opacity="1" fill-rule="evenodd"/><path fill="#e94b35" d="M 394.101562 309.199219 C 375.378906 325.285156 380.652344 338.203125 379.949219 352.617188 C 380.566406 362.375 377.839844 371.425781 371.777344 376.875 C 357.976562 379.601562 344.089844 382.414062 330.292969 385.136719 C 328.972656 381.359375 327.65625 377.578125 326.335938 373.800781 C 327.566406 368 332.402344 365.1875 342.683594 368.789062 C 343.476562 361.320312 337.410156 358.332031 330.292969 355.695312 C 327.832031 353.847656 324.84375 352.355469 325.195312 345.9375 C 323.964844 331.347656 347.695312 346.992188 347.957031 346.992188 C 348.132812 346.992188 347.167969 332.226562 336.269531 329.238281 C 330.292969 327.21875 327.832031 320.976562 330.027344 316.40625 C 334.863281 307.003906 343.738281 317.109375 350.59375 317.550781 C 350.332031 311.398438 348.574219 307.003906 343.300781 302.082031 C 340.398438 300.324219 333.367188 299.003906 333.191406 296.105469 C 333.015625 292.148438 339.785156 290.390625 349.011719 291.535156 C 347.078125 285.996094 340.839844 282.394531 332.3125 279.757812 C 330.554688 276.855469 328.886719 273.957031 327.214844 271.054688 C 324.84375 266.574219 323.699219 266.484375 329.324219 258.136719 C 334.335938 254.972656 340.925781 250.402344 345.9375 247.238281 C 344.089844 246.972656 341.277344 238.625 342.683594 228.691406 C 337.324219 235.988281 330.554688 234.667969 324.578125 237.65625 C 324.578125 237.65625 307.351562 240.644531 301.816406 247.851562 C 301.550781 247.851562 258.574219 245.742188 258.574219 245.742188 C 249.34375 246.972656 241.523438 249.523438 240.027344 258.398438 C 219.023438 260.421875 197.050781 258.574219 181.140625 278.4375 C 191.953125 277.910156 201.53125 275.363281 213.75 276.945312 C 213.75 276.945312 227.460938 293.730469 248.203125 278.4375 C 255.234375 273.253906 266.042969 282.921875 268.066406 287.140625 C 268.328125 287.402344 222.714844 297.6875 176.21875 293.730469 C 180.703125 291.535156 185.183594 289.335938 189.667969 287.140625 C 172.703125 283.800781 156.796875 280.636719 141.855469 269.035156 C 147.480469 290.039062 176.660156 314.738281 182.636719 314.648438 C 182.636719 314.914062 176.921875 304.453125 176.921875 304.453125 C 193.710938 305.15625 210.585938 305.859375 227.460938 306.5625 C 229.304688 312.101562 228.425781 318.339844 232.996094 323.175781 L 243.808594 317.550781 C 243.808594 317.550781 246.003906 322.648438 248.203125 325.988281 C 251.367188 309.726562 269.382812 307.003906 269.382812 307.003906 C 269.382812 307.003906 273.164062 315.527344 273.164062 315.792969 C 238.886719 333.632812 231.679688 420.90625 240.203125 427.5 C 203.640625 468.28125 179.296875 393.835938 178.417969 378.632812 C 177.714844 374.152344 178.859375 371.074219 185.097656 367.472656 C 191.25 364.21875 192.566406 361.671875 192.128906 352.441406 C 194.589844 346.203125 196.433594 339.875 188.789062 335.65625 C 189.050781 342.949219 186.765625 346.554688 183.777344 349.804688 C 180.175781 349.277344 178.859375 353.410156 176.484375 355.253906 C 173.054688 350.683594 183.601562 343.742188 175.78125 333.632812 C 175.339844 333.195312 170.332031 320.449219 157.9375 320.800781 C 163.828125 324.230469 166.289062 329.941406 166.289062 335.832031 C 162.421875 346.730469 160.398438 355.167969 164.355469 367.734375 C 159.171875 360.089844 156.269531 345.585938 151.960938 343.039062 C 148.183594 342.335938 146.425781 333.546875 131.835938 336.007812 C 138.164062 337.675781 140.097656 342.421875 141.855469 346.730469 C 137.988281 348.664062 139.921875 353.847656 142.648438 357.453125 C 142.117188 365.800781 147.214844 370.722656 154.863281 373.800781 C 153.542969 385.226562 152.3125 396.648438 151.082031 408.078125 C 148.09375 407.636719 133.507812 426.359375 139.394531 427.675781 C 137.636719 434.003906 135.96875 437.78125 126.5625 439.015625 C 126.5625 439.015625 136.492188 444.902344 144.84375 434.882812 C 153.632812 434.707031 157.5 417.921875 161.015625 408.691406 C 162.597656 416.953125 171.125 442.089844 190.371094 454.570312 C 207.15625 472.324219 220.957031 489.109375 220.78125 512.753906 C 227.371094 506.777344 236.335938 480.320312 268.066406 484.277344 C 266.042969 488.496094 250.3125 552.917969 209.53125 542.722656 C 204.433594 539.734375 196.433594 535.429688 192.742188 537.714844 C 185.976562 533.230469 176.308594 532.527344 174.636719 542.722656 C 179.734375 538.503906 185.359375 547.382812 188.347656 548.613281 C 187.03125 550.019531 167.34375 551.863281 164.796875 562.324219 C 168.484375 559.246094 183.777344 558.191406 187.292969 562.761719 C 187.382812 564.433594 177.800781 566.277344 175.164062 582.1875 C 184.394531 572.429688 190.984375 574.980469 190.984375 574.980469 C 194.589844 580.164062 207.773438 579.375 217.265625 570.847656 C 230.625 563.464844 234.492188 574.101562 243.105469 567.15625 C 250.222656 561.882812 258.660156 565.398438 264.460938 571.464844 C 271.230469 574.011719 278.171875 576.035156 283.710938 571.464844 C 283.710938 571.464844 290.476562 567.246094 297.15625 574.101562 C 297.246094 566.367188 291.707031 562.234375 284.148438 562.148438 C 283.445312 561.355469 283.886719 562.410156 281.953125 559.949219 C 274.921875 558.457031 266.921875 559.070312 260.769531 555.554688 C 263.671875 544.65625 267.890625 534.726562 276.238281 526.289062 C 286.433594 515.476562 293.992188 510.554688 306.914062 493.945312 C 306.386719 503.351562 313.679688 513.71875 317.460938 523.300781 C 317.460938 523.300781 325.195312 511.082031 326.335938 501.242188 C 326.511719 501.242188 361.84375 495.085938 387.421875 480.320312 C 382.324219 490.605469 403.066406 516.882812 437.078125 521.542969 C 417.214844 547.03125 381.179688 540.085938 375.730469 534.636719 C 372.917969 532.265625 372.214844 528.925781 367.382812 527.605469 C 364.304688 524.003906 360.527344 524.792969 359.382812 528.308594 C 356.21875 525.847656 344.179688 524.707031 342.15625 535.957031 C 347.78125 531.914062 352.792969 530.332031 356.308594 535.253906 C 354.460938 538.679688 361.054688 540.703125 366.679688 542.019531 C 370.722656 542.285156 377.929688 545.886719 380.125 552.039062 C 374.941406 553.621094 367.03125 553.09375 361.84375 549.226562 C 357.1875 545.359375 350.945312 545.886719 347.519531 548.347656 C 342.773438 545.359375 331.347656 551.074219 330.90625 560.125 C 335.742188 555.820312 340.046875 553.710938 344.441406 556.433594 C 342.246094 556.960938 343.125 557.136719 343.300781 558.367188 C 346.992188 560.476562 350.683594 562.585938 354.375 564.695312 C 348.925781 566.101562 343.828125 568.300781 346.199219 578.230469 C 346.199219 578.230469 350.59375 569.617188 360.527344 572.78125 C 360.703125 572.605469 361.84375 575.859375 364.746094 573.660156 C 369.050781 568.828125 378.808594 566.628906 387.421875 565.839844 C 394.363281 565.046875 401.308594 563.027344 407.285156 566.894531 C 412.644531 564.167969 418.621094 562.324219 424.773438 566.71875 C 431.980469 568.914062 437.253906 577.265625 446.394531 573.484375 C 450.964844 570.320312 456.503906 570.144531 462.304688 576.472656 C 462.304688 568.5625 456.328125 565.839844 447.714844 564.082031 C 445.691406 562.9375 443.757812 561.707031 441.738281 560.566406 C 436.199219 559.773438 430.664062 560.742188 425.214844 558.191406 C 454.042969 550.808594 474.34375 534.902344 488.582031 512.136719 C 493.152344 513.71875 497.636719 515.300781 502.207031 516.882812 C 505.457031 517.148438 505.722656 518.203125 512.402344 520.222656 C 512.578125 510.46875 508.445312 500.539062 490.78125 499.484375 L 467.578125 490.78125 C 462.65625 485.59375 460.457031 474.785156 466.699219 468.28125 C 472.851562 462.921875 473.90625 463.535156 477.949219 456.945312 C 525.144531 484.277344 545.359375 449.296875 579.023438 480.320312 C 596.863281 515.390625 561.972656 550.546875 552.566406 546.414062 C 549.140625 544.304688 545.800781 542.195312 542.371094 540.085938 C 538.769531 536.570312 535.164062 533.054688 531.5625 529.628906 C 529.714844 527.871094 525.9375 527.34375 525.144531 531.121094 C 525.144531 531.121094 511.257812 528.046875 510.203125 539.648438 C 515.917969 534.109375 524.089844 538.945312 524.089844 539.207031 C 524.089844 539.382812 522.15625 540.703125 523.652344 542.898438 C 524.003906 542.636719 533.757812 546.503906 542.460938 550.28125 C 547.207031 552.039062 548.261719 552.566406 550.371094 553.710938 C 548.085938 552.65625 545.359375 551.511719 542.460938 550.28125 C 537.1875 548.261719 532 546.679688 530.507812 547.03125 C 525.496094 546.589844 520.3125 545.976562 517.851562 549.667969 C 512.578125 551.863281 504.316406 553.710938 504.667969 563.378906 C 508.269531 557.578125 513.191406 557.839844 519.433594 558.367188 C 519.257812 558.808594 519.167969 559.246094 518.992188 559.6875 C 525.847656 562.761719 524.53125 558.894531 530.859375 558.28125 C 536.21875 557.839844 543.691406 559.6875 547.644531 561.003906 C 542.722656 562.5 535.867188 561.882812 532.703125 565.398438 C 532.089844 566.542969 529.980469 566.101562 530.945312 568.828125 C 530.945312 568.828125 521.191406 568.652344 518.554688 581.921875 C 528.484375 575.683594 535.957031 575.859375 536.21875 575.859375 C 536.394531 575.859375 539.296875 576.472656 539.296875 576.472656 C 539.296875 576.472656 551.25 568.652344 551.425781 568.652344 C 551.6875 568.652344 562.9375 563.730469 568.210938 569.265625 C 572.78125 571.550781 577.617188 571.640625 582.363281 568.828125 C 591.589844 564.871094 600.292969 564.609375 608.816406 570.234375 L 616.550781 574.804688 C 617.695312 574.011719 618.75 573.308594 619.890625 572.605469 C 619.890625 572.605469 628.59375 570.144531 635.007812 577.792969 C 632.371094 564.519531 622.703125 564.082031 622.703125 564.082031 C 622 563.378906 621.210938 562.761719 620.507812 562.148438 C 615.9375 560.390625 611.453125 558.632812 606.882812 556.875 C 604.863281 551.953125 599.851562 548.085938 604.863281 542.285156 C 609.960938 517.234375 629.824219 454.570312 566.894531 439.804688 C 614.355469 437.429688 671.394531 402.804688 649.421875 358.769531 C 652.9375 348.136719 656.367188 337.5 659.792969 326.867188 C 664.714844 336.621094 674.558594 344.003906 683.4375 347.167969 C 676.140625 333.371094 671.921875 291.183594 676.140625 262.089844 C 656.980469 285.46875 635.886719 306.125 613.476562 327.21875 C 624.460938 329.765625 634.128906 327.921875 644.851562 326.691406 C 641.777344 332.753906 638.875 338.90625 635.886719 344.972656 C 606.707031 328.097656 572.429688 340.753906 572.167969 363.339844 C 573.222656 389.617188 606.09375 393.3125 624.988281 384.171875 C 621.296875 408.164062 565.574219 399.289062 565.574219 399.289062 C 545.800781 392.609375 526.992188 393.75 506.160156 393.835938 C 510.46875 380.742188 534.460938 369.054688 552.742188 374.238281 C 527.167969 345.851562 556.347656 310.695312 591.589844 299.796875 C 553.183594 287.316406 586.230469 258.398438 614.96875 237.65625 C 614.96875 237.65625 532.351562 272.023438 524.882812 271.933594 C 501.328125 270.175781 507.832031 242.578125 516.796875 227.8125 C 472.585938 251.984375 432.949219 277.121094 394.101562 309.199219 Z M 394.101562 309.199219 " fill-opacity="1" fill-rule="evenodd"/></svg>