<svg xmlns="http://www.w3.org/2000/svg" xmlns:xlink="http://www.w3.org/1999/xlink" width="1080" zoomAndPan="magnify" viewBox="0 0 810 809.999993" height="1080" preserveAspectRatio="xMidYMid meet" version="1.0"><path fill="#e92b2b" d="M 405 810 C 628.675781 810 810 628.675781 810 405 C 810 181.324219 628.675781 0 405 0 C 181.324219 0 0 181.324219 0 405 C 0 628.675781 181.324219 810 405 810 Z M 405 810 " fill-opacity="1" fill-rule="evenodd"/><path fill="#fbfbfb" d="M 564.105469 777.550781 C 515.261719 798.4375 461.484375 810 405 810 C 348.515625 810 294.738281 798.4375 245.894531 777.550781 L 245.894531 32.449219 C 294.738281 11.5625 348.515625 0 405 0 C 461.484375 0 515.261719 11.5625 564.105469 32.449219 Z M 564.105469 777.550781 " fill-opacity="1" fill-rule="evenodd"/><path fill="#2a2faf" d="M 245.894531 32.445312 C 101.3125 94.273438 0 237.804688 0 404.996094 C 0 572.1875 101.3125 715.71875 245.894531 777.546875 Z M 245.894531 32.445312 " fill-opacity="1" fill-rule="evenodd"/></svg>