<svg xmlns="http://www.w3.org/2000/svg" xmlns:xlink="http://www.w3.org/1999/xlink" width="1080" zoomAndPan="magnify" viewBox="0 0 810 809.999993" height="1080" preserveAspectRatio="xMidYMid meet" version="1.0"><rect x="-81" width="972" fill="#ffffff" y="-80.999999" height="971.999992" fill-opacity="1"/><rect x="-81" width="972" fill="#ffffff" y="-80.999999" height="971.999992" fill-opacity="1"/><path fill="#ffffff" d="M 334.570312 7.226562 C 322.085938 9.4375 309.707031 12.222656 297.488281 15.605469 L 297.488281 270.085938 L 91.105469 150.902344 C 81.511719 162.769531 72.453125 175.222656 64.085938 188.410156 C 60.789062 193.585938 57.699219 198.84375 54.660156 204.101562 L 279.222656 333.792969 L 210.015625 333.792969 L 38.753906 234.898438 C 35.246094 242.453125 31.9375 250.078125 28.933594 257.746094 L 160.578125 333.792969 L 7.445312 333.792969 C 5.988281 341.964844 4.710938 350.144531 3.769531 358.347656 L 334.570312 358.347656 L 334.570312 7.226562 " fill-opacity="1" fill-rule="nonzero"/><path fill="#ffffff" d="M 475.460938 802.722656 C 487.933594 800.503906 500.300781 797.726562 512.53125 794.355469 L 512.53125 542.746094 L 717.300781 660.996094 C 727.460938 648.554688 737.082031 635.449219 745.910156 621.539062 C 748.757812 617.066406 751.398438 612.53125 754.046875 608.003906 L 525.777344 476.167969 L 594.988281 476.167969 L 770.164062 577.324219 C 773.734375 569.792969 777.066406 562.1875 780.125 554.53125 L 644.449219 476.167969 L 802.554688 476.167969 C 804.011719 468.019531 805.289062 459.847656 806.242188 451.644531 L 475.460938 451.644531 L 475.460938 802.722656 " fill-opacity="1" fill-rule="nonzero"/><path fill="#ffffff" d="M 3.894531 451.644531 C 4.867188 459.867188 6.050781 468.039062 7.507812 476.167969 L 150.722656 476.167969 L 27.140625 547.554688 C 34.691406 567.636719 43.90625 587.128906 54.640625 605.878906 L 279.246094 476.167969 L 297.488281 476.167969 L 297.488281 505.632812 L 73.050781 635.21875 C 77.753906 642.015625 82.769531 648.648438 87.921875 655.171875 L 297.488281 534.15625 L 297.488281 794.425781 C 309.75 797.832031 322.140625 800.585938 334.570312 802.777344 L 334.570312 451.644531 L 3.894531 451.644531 " fill-opacity="1" fill-rule="nonzero"/><path fill="#ffffff" d="M 806.113281 358.347656 C 805.140625 350.113281 803.945312 341.941406 802.492188 333.792969 L 654.355469 333.792969 L 781.988281 260.082031 C 774.300781 240.0625 764.949219 220.632812 754.109375 201.945312 L 525.832031 333.792969 L 512.53125 333.792969 L 512.53125 301.519531 L 735.5 172.71875 C 730.738281 165.953125 725.710938 159.324219 720.507812 152.828125 L 512.53125 272.933594 L 512.53125 15.523438 C 500.246094 12.128906 487.871094 9.363281 475.460938 7.175781 L 475.460938 358.347656 L 806.113281 358.347656 " fill-opacity="1" fill-rule="nonzero"/><path fill="#202149" d="M 28.933594 257.746094 C 19.160156 282.632812 12.039062 308.085938 7.445312 333.792969 L 160.578125 333.792969 L 28.933594 257.746094 " fill-opacity="1" fill-rule="nonzero"/><path fill="#202149" d="M 7.507812 476.167969 C 11.882812 500.492188 18.429688 524.394531 27.140625 547.554688 L 150.722656 476.167969 L 7.507812 476.167969 " fill-opacity="1" fill-rule="nonzero"/><path fill="#202149" d="M 87.921875 655.171875 C 115.367188 689.980469 148.960938 720.882812 188.496094 745.980469 C 223.136719 768 259.882812 784.027344 297.488281 794.425781 L 297.488281 534.15625 L 87.921875 655.171875 " fill-opacity="1" fill-rule="nonzero"/><path fill="#202149" d="M 512.53125 794.355469 C 590.976562 772.703125 663.066406 727.324219 717.300781 660.996094 L 512.53125 542.746094 L 512.53125 794.355469 " fill-opacity="1" fill-rule="nonzero"/><path fill="#202149" d="M 720.507812 152.828125 C 693.351562 118.828125 660.292969 88.597656 621.511719 63.96875 C 586.863281 41.953125 550.125 25.925781 512.53125 15.523438 L 512.53125 272.933594 L 720.507812 152.828125 " fill-opacity="1" fill-rule="nonzero"/><path fill="#202149" d="M 297.488281 15.605469 C 218.257812 37.46875 145.496094 83.496094 91.105469 150.902344 L 297.488281 270.085938 L 297.488281 15.605469 " fill-opacity="1" fill-rule="nonzero"/><path fill="#202149" d="M 780.125 554.53125 C 790.363281 528.917969 797.820312 502.679688 802.554688 476.167969 L 644.449219 476.167969 L 780.125 554.53125 " fill-opacity="1" fill-rule="nonzero"/><path fill="#202149" d="M 802.492188 333.792969 C 797.976562 308.675781 791.140625 283.972656 781.988281 260.082031 L 654.355469 333.792969 L 802.492188 333.792969 " fill-opacity="1" fill-rule="nonzero"/><path fill="#e52c33" d="M 525.777344 476.167969 L 754.046875 608.003906 C 759.914062 597.929688 765.253906 587.695312 770.164062 577.324219 L 594.988281 476.167969 L 525.777344 476.167969 " fill-opacity="1" fill-rule="nonzero"/><path fill="#e52c33" d="M 512.53125 333.792969 L 525.832031 333.792969 L 754.109375 201.945312 C 748.332031 191.984375 742.160156 182.222656 735.5 172.71875 L 512.53125 301.519531 L 512.53125 333.792969 " fill-opacity="1" fill-rule="nonzero"/><path fill="#e52c33" d="M 279.222656 333.792969 L 54.660156 204.101562 C 48.871094 214.222656 43.613281 224.496094 38.753906 234.898438 L 210.015625 333.792969 L 279.222656 333.792969 " fill-opacity="1" fill-rule="nonzero"/><path fill="#e52c33" d="M 297.488281 476.167969 L 279.246094 476.167969 L 54.640625 605.878906 C 60.371094 615.871094 66.453125 625.699219 73.050781 635.21875 L 297.488281 505.632812 L 297.488281 476.167969 " fill-opacity="1" fill-rule="nonzero"/><path fill="#e52c33" d="M 806.113281 358.347656 L 475.460938 358.347656 L 475.460938 7.175781 C 428.492188 -1.132812 380.792969 -0.984375 334.570312 7.226562 L 334.570312 358.347656 L 3.769531 358.347656 C 0.175781 389.5 0.292969 420.808594 3.894531 451.644531 L 334.570312 451.644531 L 334.570312 802.777344 C 381.527344 811.082031 429.226562 810.9375 475.460938 802.722656 L 475.460938 451.644531 L 806.242188 451.644531 C 809.820312 420.492188 809.707031 389.183594 806.113281 358.347656 " fill-opacity="1" fill-rule="nonzero"/></svg>