<svg xmlns="http://www.w3.org/2000/svg" xmlns:xlink="http://www.w3.org/1999/xlink" width="1080" zoomAndPan="magnify" viewBox="0 0 810 809.999993" height="1080" preserveAspectRatio="xMidYMid meet" version="1.0"><rect x="-81" width="972" fill="#ffffff" y="-80.999999" height="971.999992" fill-opacity="1"/><rect x="-81" width="972" fill="#ffffff" y="-80.999999" height="971.999992" fill-opacity="1"/><path fill="#f1f1f1" d="M 405.0625 2.652344 C 232.8125 2.652344 85.523438 111.265625 27.917969 263.558594 L 405.289062 303.921875 L 782.175781 263.558594 C 724.585938 111.277344 577.308594 2.652344 405.0625 2.652344 Z M 405.0625 2.652344 " fill-opacity="1" fill-rule="nonzero"/><path fill="#e90000" d="M 405.0625 808.695312 C 577.308594 808.695312 724.585938 700.082031 782.1875 547.785156 L 405.0625 520.878906 L 27.933594 547.785156 C 85.523438 700.066406 232.8125 808.695312 405.0625 808.695312 Z M 405.0625 808.695312 " fill-opacity="1" fill-rule="nonzero"/><path fill="#0000d2" d="M 786.84375 276.730469 C 785.351562 272.320312 783.816406 267.917969 782.175781 263.574219 L 27.917969 263.574219 C -6.433594 352.03125 -6.433594 459.3125 27.917969 547.769531 C 27.917969 547.769531 782.175781 547.769531 782.175781 547.769531 C 814.753906 463.925781 816.636719 361.664062 786.84375 276.730469 Z M 786.84375 276.730469 " fill-opacity="1" fill-rule="nonzero"/></svg>